<?xml version="1.0" encoding="utf-8" standalone="no"?>
<!DOCTYPE svg PUBLIC "-//W3C//DTD SVG 1.1//EN"
  "http://www.w3.org/Graphics/SVG/1.1/DTD/svg11.dtd">
<svg xmlns:xlink="http://www.w3.org/1999/xlink" width="625.709674pt" height="170.754375pt" viewBox="0 0 625.709674 170.754375" xmlns="http://www.w3.org/2000/svg" version="1.1">
 <metadata>
  <rdf:RDF xmlns:dc="http://purl.org/dc/elements/1.1/" xmlns:cc="http://creativecommons.org/ns#" xmlns:rdf="http://www.w3.org/1999/02/22-rdf-syntax-ns#">
   <cc:Work>
    <dc:type rdf:resource="http://purl.org/dc/dcmitype/StillImage"/>
    <dc:date>2025-11-01T13:41:25.951354</dc:date>
    <dc:format>image/svg+xml</dc:format>
    <dc:creator>
     <cc:Agent>
      <dc:title>Matplotlib v3.7.1, https://matplotlib.org/</dc:title>
     </cc:Agent>
    </dc:creator>
   </cc:Work>
  </rdf:RDF>
 </metadata>
 <defs>
  <style type="text/css">*{stroke-linejoin: round; stroke-linecap: butt}</style>
 </defs>
 <g id="figure_1">
  <g id="patch_1">
   <path d="M 0 170.754375 
L 625.709674 170.754375 
L 625.709674 0 
L 0 0 
z
" style="fill: #ffffff"/>
  </g>
  <g id="axes_1">
   <g id="patch_2">
    <path d="M 10.38125 133.198125 
L 568.38125 133.198125 
L 568.38125 22.318125 
L 10.38125 22.318125 
z
" style="fill: #ffffff"/>
   </g>
   <g id="line2d_1">
    <path d="M 204.379045 77.758125 
L 544.592937 77.758125 
" clip-path="url(#p3b8e0d6124)" style="fill: none; stroke: #000000; stroke-linecap: square"/>
   </g>
   <g id="patch_3">
    <path d="M 204.379045 83.302125 
L 226.936928 83.302125 
L 226.936928 72.214125 
L 204.379045 72.214125 
z
" clip-path="url(#p3b8e0d6124)" style="fill: #0000ff; stroke: #0000ff; stroke-linejoin: miter"/>
   </g>
   <g id="patch_4">
    <path d="M 226.936928 88.846125 
L 249.28974 88.846125 
L 249.28974 66.670125 
L 226.936928 66.670125 
z
" clip-path="url(#p3b8e0d6124)" style="fill: #ffa500; stroke: #ffa500; stroke-linejoin: miter"/>
   </g>
   <g id="patch_5">
    <path d="M 269.181691 88.846125 
L 313.682242 88.846125 
L 313.682242 66.670125 
L 269.181691 66.670125 
z
" clip-path="url(#p3b8e0d6124)" style="fill: #ffa500; stroke: #ffa500; stroke-linejoin: miter"/>
   </g>
   <g id="patch_6">
    <path d="M 509.525682 83.302125 
L 544.592937 83.302125 
L 544.592937 72.214125 
L 509.525682 72.214125 
z
" clip-path="url(#p3b8e0d6124)" style="fill: #0000ff; stroke: #0000ff; stroke-linejoin: miter"/>
   </g>
   <g id="patch_7">
    <path d="M 423.805726 88.846125 
L 509.525682 88.846125 
L 509.525682 66.670125 
L 423.805726 66.670125 
z
" clip-path="url(#p3b8e0d6124)" style="fill: #ffa500; stroke: #ffa500; stroke-linejoin: miter"/>
   </g>
   <g id="patch_8">
    <path d="M 65.135385 88.846125 
L 67.391173 88.846125 
L 67.391173 66.670125 
L 65.135385 66.670125 
z
" clip-path="url(#p3b8e0d6124)" style="stroke: #000000; stroke-linejoin: miter"/>
   </g>
   <g id="patch_9">
    <path d="M 25.351482 47.266125 
L 15.097898 52.810125 
L 15.097898 48.652125 
L 10.38125 48.652125 
L 10.38125 45.880125 
L 15.097898 45.880125 
L 15.097898 41.722125 
z
" clip-path="url(#p3b8e0d6124)" style="fill: #ff0000; stroke: #ff0000; stroke-linejoin: miter"/>
   </g>
   <g id="patch_10">
    <path d="M 191.049387 47.266125 
L 201.30297 41.722125 
L 201.30297 45.880125 
L 205.814547 45.880125 
L 205.814547 48.652125 
L 201.30297 48.652125 
L 201.30297 52.810125 
z
" clip-path="url(#p3b8e0d6124)" style="fill: #ff0000; stroke: #ff0000; stroke-linejoin: miter"/>
   </g>
   <g id="patch_11">
    <path d="M 168.286432 102.706125 
L 158.032849 108.250125 
L 158.032849 104.092125 
L 153.3162 104.092125 
L 153.3162 101.320125 
L 158.032849 101.320125 
L 158.032849 97.162125 
z
" clip-path="url(#p3b8e0d6124)" style="fill: #ff0000; stroke: #ff0000; stroke-linejoin: miter"/>
   </g>
   <g id="patch_12">
    <path d="M 327.832187 47.266125 
L 338.08577 41.722125 
L 338.08577 45.880125 
L 342.802419 45.880125 
L 342.802419 48.652125 
L 338.08577 48.652125 
L 338.08577 52.810125 
z
" clip-path="url(#p3b8e0d6124)" style="fill: #ff0000; stroke: #ff0000; stroke-linejoin: miter"/>
   </g>
   <g id="patch_13">
    <path d="M 333.779265 102.706125 
L 323.525682 108.250125 
L 323.525682 104.092125 
L 318.809034 104.092125 
L 318.809034 101.320125 
L 323.525682 101.320125 
L 323.525682 97.162125 
z
" clip-path="url(#p3b8e0d6124)" style="fill: #ff0000; stroke: #ff0000; stroke-linejoin: miter"/>
   </g>
   <g id="patch_14">
    <path d="M 531.263279 47.266125 
L 541.516862 41.722125 
L 541.516862 45.880125 
L 546.438582 45.880125 
L 546.438582 48.652125 
L 541.516862 48.652125 
L 541.516862 52.810125 
z
" clip-path="url(#p3b8e0d6124)" style="fill: #ff0000; stroke: #ff0000; stroke-linejoin: miter"/>
   </g>
   <g id="patch_15">
    <path d="M 59.188306 93.835725 
L 48.934723 99.379725 
L 48.934723 95.221725 
L 44.013003 95.221725 
L 44.013003 92.449725 
L 48.934723 92.449725 
L 48.934723 88.291725 
z
" clip-path="url(#p3b8e0d6124)" style="fill: #0000ff; stroke: #0000ff; stroke-linejoin: miter"/>
   </g>
   <g id="patch_16">
    <path d="M 70.672319 63.898125 
L 80.925903 58.354125 
L 80.925903 62.512125 
L 85.642551 62.512125 
L 85.642551 65.284125 
L 80.925903 65.284125 
L 80.925903 69.442125 
z
" clip-path="url(#p3b8e0d6124)" style="fill: #0000ff; stroke: #0000ff; stroke-linejoin: miter"/>
   </g>
   <g id="patch_17">
    <path d="M 565.100103 77.758125 
L 554.84652 83.302125 
L 554.84652 79.144125 
L 544.592937 79.144125 
L 544.592937 76.372125 
L 554.84652 76.372125 
L 554.84652 72.214125 
z
" clip-path="url(#p3b8e0d6124)" style="fill: #008000; stroke: #008000; stroke-linejoin: miter"/>
   </g>
   <g id="matplotlib.axis_1">
    <g id="xtick_1">
     <g id="line2d_2">
      <defs>
       <path id="m420fec087e" d="M 0 0 
L 0 3.5 
" style="stroke: #000000; stroke-width: 0.8"/>
      </defs>
      <g>
       <use xlink:href="#m420fec087e" x="10.38125" y="133.198125" style="stroke: #000000; stroke-width: 0.8"/>
      </g>
     </g>
     <g id="text_1">
      <!-- 0 -->
      <g transform="translate(7.2 147.796563) scale(0.1 -0.1)">
       <defs>
        <path id="DejaVuSans-30" d="M 2034 4250 
Q 1547 4250 1301 3770 
Q 1056 3291 1056 2328 
Q 1056 1369 1301 889 
Q 1547 409 2034 409 
Q 2525 409 2770 889 
Q 3016 1369 3016 2328 
Q 3016 3291 2770 3770 
Q 2525 4250 2034 4250 
z
M 2034 4750 
Q 2819 4750 3233 4129 
Q 3647 3509 3647 2328 
Q 3647 1150 3233 529 
Q 2819 -91 2034 -91 
Q 1250 -91 836 529 
Q 422 1150 422 2328 
Q 422 3509 836 4129 
Q 1250 4750 2034 4750 
z
" transform="scale(0.015625)"/>
       </defs>
       <use xlink:href="#DejaVuSans-30"/>
      </g>
     </g>
    </g>
    <g id="xtick_2">
     <g id="line2d_3">
      <g>
       <use xlink:href="#m420fec087e" x="112.917082" y="133.198125" style="stroke: #000000; stroke-width: 0.8"/>
      </g>
     </g>
     <g id="text_2">
      <!-- 500 -->
      <g transform="translate(103.373332 147.796563) scale(0.1 -0.1)">
       <defs>
        <path id="DejaVuSans-35" d="M 691 4666 
L 3169 4666 
L 3169 4134 
L 1269 4134 
L 1269 2991 
Q 1406 3038 1543 3061 
Q 1681 3084 1819 3084 
Q 2600 3084 3056 2656 
Q 3513 2228 3513 1497 
Q 3513 744 3044 326 
Q 2575 -91 1722 -91 
Q 1428 -91 1123 -41 
Q 819 9 494 109 
L 494 744 
Q 775 591 1075 516 
Q 1375 441 1709 441 
Q 2250 441 2565 725 
Q 2881 1009 2881 1497 
Q 2881 1984 2565 2268 
Q 2250 2553 1709 2553 
Q 1456 2553 1204 2497 
Q 953 2441 691 2322 
L 691 4666 
z
" transform="scale(0.015625)"/>
       </defs>
       <use xlink:href="#DejaVuSans-35"/>
       <use xlink:href="#DejaVuSans-30" x="63.623047"/>
       <use xlink:href="#DejaVuSans-30" x="127.246094"/>
      </g>
     </g>
    </g>
    <g id="xtick_3">
     <g id="line2d_4">
      <g>
       <use xlink:href="#m420fec087e" x="215.452915" y="133.198125" style="stroke: #000000; stroke-width: 0.8"/>
      </g>
     </g>
     <g id="text_3">
      <!-- 1000 -->
      <g transform="translate(202.727915 147.796563) scale(0.1 -0.1)">
       <defs>
        <path id="DejaVuSans-31" d="M 794 531 
L 1825 531 
L 1825 4091 
L 703 3866 
L 703 4441 
L 1819 4666 
L 2450 4666 
L 2450 531 
L 3481 531 
L 3481 0 
L 794 0 
L 794 531 
z
" transform="scale(0.015625)"/>
       </defs>
       <use xlink:href="#DejaVuSans-31"/>
       <use xlink:href="#DejaVuSans-30" x="63.623047"/>
       <use xlink:href="#DejaVuSans-30" x="127.246094"/>
       <use xlink:href="#DejaVuSans-30" x="190.869141"/>
      </g>
     </g>
    </g>
    <g id="xtick_4">
     <g id="line2d_5">
      <g>
       <use xlink:href="#m420fec087e" x="317.988747" y="133.198125" style="stroke: #000000; stroke-width: 0.8"/>
      </g>
     </g>
     <g id="text_4">
      <!-- 1500 -->
      <g transform="translate(305.263747 147.796563) scale(0.1 -0.1)">
       <use xlink:href="#DejaVuSans-31"/>
       <use xlink:href="#DejaVuSans-35" x="63.623047"/>
       <use xlink:href="#DejaVuSans-30" x="127.246094"/>
       <use xlink:href="#DejaVuSans-30" x="190.869141"/>
      </g>
     </g>
    </g>
    <g id="xtick_5">
     <g id="line2d_6">
      <g>
       <use xlink:href="#m420fec087e" x="420.52458" y="133.198125" style="stroke: #000000; stroke-width: 0.8"/>
      </g>
     </g>
     <g id="text_5">
      <!-- 2000 -->
      <g transform="translate(407.79958 147.796563) scale(0.1 -0.1)">
       <defs>
        <path id="DejaVuSans-32" d="M 1228 531 
L 3431 531 
L 3431 0 
L 469 0 
L 469 531 
Q 828 903 1448 1529 
Q 2069 2156 2228 2338 
Q 2531 2678 2651 2914 
Q 2772 3150 2772 3378 
Q 2772 3750 2511 3984 
Q 2250 4219 1831 4219 
Q 1534 4219 1204 4116 
Q 875 4013 500 3803 
L 500 4441 
Q 881 4594 1212 4672 
Q 1544 4750 1819 4750 
Q 2544 4750 2975 4387 
Q 3406 4025 3406 3419 
Q 3406 3131 3298 2873 
Q 3191 2616 2906 2266 
Q 2828 2175 2409 1742 
Q 1991 1309 1228 531 
z
" transform="scale(0.015625)"/>
       </defs>
       <use xlink:href="#DejaVuSans-32"/>
       <use xlink:href="#DejaVuSans-30" x="63.623047"/>
       <use xlink:href="#DejaVuSans-30" x="127.246094"/>
       <use xlink:href="#DejaVuSans-30" x="190.869141"/>
      </g>
     </g>
    </g>
    <g id="xtick_6">
     <g id="line2d_7">
      <g>
       <use xlink:href="#m420fec087e" x="523.060412" y="133.198125" style="stroke: #000000; stroke-width: 0.8"/>
      </g>
     </g>
     <g id="text_6">
      <!-- 2500 -->
      <g transform="translate(510.335412 147.796563) scale(0.1 -0.1)">
       <use xlink:href="#DejaVuSans-32"/>
       <use xlink:href="#DejaVuSans-35" x="63.623047"/>
       <use xlink:href="#DejaVuSans-30" x="127.246094"/>
       <use xlink:href="#DejaVuSans-30" x="190.869141"/>
      </g>
     </g>
    </g>
    <g id="text_7">
     <!-- Position, bp -->
     <g transform="translate(260.390625 161.474688) scale(0.1 -0.1)">
      <defs>
       <path id="DejaVuSans-50" d="M 1259 4147 
L 1259 2394 
L 2053 2394 
Q 2494 2394 2734 2622 
Q 2975 2850 2975 3272 
Q 2975 3691 2734 3919 
Q 2494 4147 2053 4147 
L 1259 4147 
z
M 628 4666 
L 2053 4666 
Q 2838 4666 3239 4311 
Q 3641 3956 3641 3272 
Q 3641 2581 3239 2228 
Q 2838 1875 2053 1875 
L 1259 1875 
L 1259 0 
L 628 0 
L 628 4666 
z
" transform="scale(0.015625)"/>
       <path id="DejaVuSans-6f" d="M 1959 3097 
Q 1497 3097 1228 2736 
Q 959 2375 959 1747 
Q 959 1119 1226 758 
Q 1494 397 1959 397 
Q 2419 397 2687 759 
Q 2956 1122 2956 1747 
Q 2956 2369 2687 2733 
Q 2419 3097 1959 3097 
z
M 1959 3584 
Q 2709 3584 3137 3096 
Q 3566 2609 3566 1747 
Q 3566 888 3137 398 
Q 2709 -91 1959 -91 
Q 1206 -91 779 398 
Q 353 888 353 1747 
Q 353 2609 779 3096 
Q 1206 3584 1959 3584 
z
" transform="scale(0.015625)"/>
       <path id="DejaVuSans-73" d="M 2834 3397 
L 2834 2853 
Q 2591 2978 2328 3040 
Q 2066 3103 1784 3103 
Q 1356 3103 1142 2972 
Q 928 2841 928 2578 
Q 928 2378 1081 2264 
Q 1234 2150 1697 2047 
L 1894 2003 
Q 2506 1872 2764 1633 
Q 3022 1394 3022 966 
Q 3022 478 2636 193 
Q 2250 -91 1575 -91 
Q 1294 -91 989 -36 
Q 684 19 347 128 
L 347 722 
Q 666 556 975 473 
Q 1284 391 1588 391 
Q 1994 391 2212 530 
Q 2431 669 2431 922 
Q 2431 1156 2273 1281 
Q 2116 1406 1581 1522 
L 1381 1569 
Q 847 1681 609 1914 
Q 372 2147 372 2553 
Q 372 3047 722 3315 
Q 1072 3584 1716 3584 
Q 2034 3584 2315 3537 
Q 2597 3491 2834 3397 
z
" transform="scale(0.015625)"/>
       <path id="DejaVuSans-69" d="M 603 3500 
L 1178 3500 
L 1178 0 
L 603 0 
L 603 3500 
z
M 603 4863 
L 1178 4863 
L 1178 4134 
L 603 4134 
L 603 4863 
z
" transform="scale(0.015625)"/>
       <path id="DejaVuSans-74" d="M 1172 4494 
L 1172 3500 
L 2356 3500 
L 2356 3053 
L 1172 3053 
L 1172 1153 
Q 1172 725 1289 603 
Q 1406 481 1766 481 
L 2356 481 
L 2356 0 
L 1766 0 
Q 1100 0 847 248 
Q 594 497 594 1153 
L 594 3053 
L 172 3053 
L 172 3500 
L 594 3500 
L 594 4494 
L 1172 4494 
z
" transform="scale(0.015625)"/>
       <path id="DejaVuSans-6e" d="M 3513 2113 
L 3513 0 
L 2938 0 
L 2938 2094 
Q 2938 2591 2744 2837 
Q 2550 3084 2163 3084 
Q 1697 3084 1428 2787 
Q 1159 2491 1159 1978 
L 1159 0 
L 581 0 
L 581 3500 
L 1159 3500 
L 1159 2956 
Q 1366 3272 1645 3428 
Q 1925 3584 2291 3584 
Q 2894 3584 3203 3211 
Q 3513 2838 3513 2113 
z
" transform="scale(0.015625)"/>
       <path id="DejaVuSans-2c" d="M 750 794 
L 1409 794 
L 1409 256 
L 897 -744 
L 494 -744 
L 750 256 
L 750 794 
z
" transform="scale(0.015625)"/>
       <path id="DejaVuSans-20" transform="scale(0.015625)"/>
       <path id="DejaVuSans-62" d="M 3116 1747 
Q 3116 2381 2855 2742 
Q 2594 3103 2138 3103 
Q 1681 3103 1420 2742 
Q 1159 2381 1159 1747 
Q 1159 1113 1420 752 
Q 1681 391 2138 391 
Q 2594 391 2855 752 
Q 3116 1113 3116 1747 
z
M 1159 2969 
Q 1341 3281 1617 3432 
Q 1894 3584 2278 3584 
Q 2916 3584 3314 3078 
Q 3713 2572 3713 1747 
Q 3713 922 3314 415 
Q 2916 -91 2278 -91 
Q 1894 -91 1617 61 
Q 1341 213 1159 525 
L 1159 0 
L 581 0 
L 581 4863 
L 1159 4863 
L 1159 2969 
z
" transform="scale(0.015625)"/>
       <path id="DejaVuSans-70" d="M 1159 525 
L 1159 -1331 
L 581 -1331 
L 581 3500 
L 1159 3500 
L 1159 2969 
Q 1341 3281 1617 3432 
Q 1894 3584 2278 3584 
Q 2916 3584 3314 3078 
Q 3713 2572 3713 1747 
Q 3713 922 3314 415 
Q 2916 -91 2278 -91 
Q 1894 -91 1617 61 
Q 1341 213 1159 525 
z
M 3116 1747 
Q 3116 2381 2855 2742 
Q 2594 3103 2138 3103 
Q 1681 3103 1420 2742 
Q 1159 2381 1159 1747 
Q 1159 1113 1420 752 
Q 1681 391 2138 391 
Q 2594 391 2855 752 
Q 3116 1113 3116 1747 
z
" transform="scale(0.015625)"/>
      </defs>
      <use xlink:href="#DejaVuSans-50"/>
      <use xlink:href="#DejaVuSans-6f" x="56.677734"/>
      <use xlink:href="#DejaVuSans-73" x="117.859375"/>
      <use xlink:href="#DejaVuSans-69" x="169.958984"/>
      <use xlink:href="#DejaVuSans-74" x="197.742188"/>
      <use xlink:href="#DejaVuSans-69" x="236.951172"/>
      <use xlink:href="#DejaVuSans-6f" x="264.734375"/>
      <use xlink:href="#DejaVuSans-6e" x="325.916016"/>
      <use xlink:href="#DejaVuSans-2c" x="389.294922"/>
      <use xlink:href="#DejaVuSans-20" x="421.082031"/>
      <use xlink:href="#DejaVuSans-62" x="452.869141"/>
      <use xlink:href="#DejaVuSans-70" x="516.345703"/>
     </g>
    </g>
   </g>
   <g id="matplotlib.axis_2"/>
   <g id="patch_18">
    <path d="M 10.38125 133.198125 
L 568.38125 133.198125 
" style="fill: none; stroke: #000000; stroke-width: 0.8; stroke-linejoin: miter; stroke-linecap: square"/>
   </g>
   <g id="text_8">
    <!-- 12bp_del -->
    <g transform="translate(70.181173 79.975725) scale(0.1 -0.1)">
     <defs>
      <path id="DejaVuSans-5f" d="M 3263 -1063 
L 3263 -1509 
L -63 -1509 
L -63 -1063 
L 3263 -1063 
z
" transform="scale(0.015625)"/>
      <path id="DejaVuSans-64" d="M 2906 2969 
L 2906 4863 
L 3481 4863 
L 3481 0 
L 2906 0 
L 2906 525 
Q 2725 213 2448 61 
Q 2172 -91 1784 -91 
Q 1150 -91 751 415 
Q 353 922 353 1747 
Q 353 2572 751 3078 
Q 1150 3584 1784 3584 
Q 2172 3584 2448 3432 
Q 2725 3281 2906 2969 
z
M 947 1747 
Q 947 1113 1208 752 
Q 1469 391 1925 391 
Q 2381 391 2643 752 
Q 2906 1113 2906 1747 
Q 2906 2381 2643 2742 
Q 2381 3103 1925 3103 
Q 1469 3103 1208 2742 
Q 947 2381 947 1747 
z
" transform="scale(0.015625)"/>
      <path id="DejaVuSans-65" d="M 3597 1894 
L 3597 1613 
L 953 1613 
Q 991 1019 1311 708 
Q 1631 397 2203 397 
Q 2534 397 2845 478 
Q 3156 559 3463 722 
L 3463 178 
Q 3153 47 2828 -22 
Q 2503 -91 2169 -91 
Q 1331 -91 842 396 
Q 353 884 353 1716 
Q 353 2575 817 3079 
Q 1281 3584 2069 3584 
Q 2775 3584 3186 3129 
Q 3597 2675 3597 1894 
z
M 3022 2063 
Q 3016 2534 2758 2815 
Q 2500 3097 2075 3097 
Q 1594 3097 1305 2825 
Q 1016 2553 972 2059 
L 3022 2063 
z
" transform="scale(0.015625)"/>
      <path id="DejaVuSans-6c" d="M 603 4863 
L 1178 4863 
L 1178 0 
L 603 0 
L 603 4863 
z
" transform="scale(0.015625)"/>
     </defs>
     <use xlink:href="#DejaVuSans-31"/>
     <use xlink:href="#DejaVuSans-32" x="63.623047"/>
     <use xlink:href="#DejaVuSans-62" x="127.246094"/>
     <use xlink:href="#DejaVuSans-70" x="190.722656"/>
     <use xlink:href="#DejaVuSans-5f" x="254.199219"/>
     <use xlink:href="#DejaVuSans-64" x="304.199219"/>
     <use xlink:href="#DejaVuSans-65" x="367.675781"/>
     <use xlink:href="#DejaVuSans-6c" x="429.199219"/>
    </g>
   </g>
   <g id="text_9">
    <!-- TaGrf9-6A-F1 -->
    <g transform="translate(26.257898 52.255725) scale(0.1 -0.1)">
     <defs>
      <path id="DejaVuSans-54" d="M -19 4666 
L 3928 4666 
L 3928 4134 
L 2272 4134 
L 2272 0 
L 1638 0 
L 1638 4134 
L -19 4134 
L -19 4666 
z
" transform="scale(0.015625)"/>
      <path id="DejaVuSans-61" d="M 2194 1759 
Q 1497 1759 1228 1600 
Q 959 1441 959 1056 
Q 959 750 1161 570 
Q 1363 391 1709 391 
Q 2188 391 2477 730 
Q 2766 1069 2766 1631 
L 2766 1759 
L 2194 1759 
z
M 3341 1997 
L 3341 0 
L 2766 0 
L 2766 531 
Q 2569 213 2275 61 
Q 1981 -91 1556 -91 
Q 1019 -91 701 211 
Q 384 513 384 1019 
Q 384 1609 779 1909 
Q 1175 2209 1959 2209 
L 2766 2209 
L 2766 2266 
Q 2766 2663 2505 2880 
Q 2244 3097 1772 3097 
Q 1472 3097 1187 3025 
Q 903 2953 641 2809 
L 641 3341 
Q 956 3463 1253 3523 
Q 1550 3584 1831 3584 
Q 2591 3584 2966 3190 
Q 3341 2797 3341 1997 
z
" transform="scale(0.015625)"/>
      <path id="DejaVuSans-47" d="M 3809 666 
L 3809 1919 
L 2778 1919 
L 2778 2438 
L 4434 2438 
L 4434 434 
Q 4069 175 3628 42 
Q 3188 -91 2688 -91 
Q 1594 -91 976 548 
Q 359 1188 359 2328 
Q 359 3472 976 4111 
Q 1594 4750 2688 4750 
Q 3144 4750 3555 4637 
Q 3966 4525 4313 4306 
L 4313 3634 
Q 3963 3931 3569 4081 
Q 3175 4231 2741 4231 
Q 1884 4231 1454 3753 
Q 1025 3275 1025 2328 
Q 1025 1384 1454 906 
Q 1884 428 2741 428 
Q 3075 428 3337 486 
Q 3600 544 3809 666 
z
" transform="scale(0.015625)"/>
      <path id="DejaVuSans-72" d="M 2631 2963 
Q 2534 3019 2420 3045 
Q 2306 3072 2169 3072 
Q 1681 3072 1420 2755 
Q 1159 2438 1159 1844 
L 1159 0 
L 581 0 
L 581 3500 
L 1159 3500 
L 1159 2956 
Q 1341 3275 1631 3429 
Q 1922 3584 2338 3584 
Q 2397 3584 2469 3576 
Q 2541 3569 2628 3553 
L 2631 2963 
z
" transform="scale(0.015625)"/>
      <path id="DejaVuSans-66" d="M 2375 4863 
L 2375 4384 
L 1825 4384 
Q 1516 4384 1395 4259 
Q 1275 4134 1275 3809 
L 1275 3500 
L 2222 3500 
L 2222 3053 
L 1275 3053 
L 1275 0 
L 697 0 
L 697 3053 
L 147 3053 
L 147 3500 
L 697 3500 
L 697 3744 
Q 697 4328 969 4595 
Q 1241 4863 1831 4863 
L 2375 4863 
z
" transform="scale(0.015625)"/>
      <path id="DejaVuSans-39" d="M 703 97 
L 703 672 
Q 941 559 1184 500 
Q 1428 441 1663 441 
Q 2288 441 2617 861 
Q 2947 1281 2994 2138 
Q 2813 1869 2534 1725 
Q 2256 1581 1919 1581 
Q 1219 1581 811 2004 
Q 403 2428 403 3163 
Q 403 3881 828 4315 
Q 1253 4750 1959 4750 
Q 2769 4750 3195 4129 
Q 3622 3509 3622 2328 
Q 3622 1225 3098 567 
Q 2575 -91 1691 -91 
Q 1453 -91 1209 -44 
Q 966 3 703 97 
z
M 1959 2075 
Q 2384 2075 2632 2365 
Q 2881 2656 2881 3163 
Q 2881 3666 2632 3958 
Q 2384 4250 1959 4250 
Q 1534 4250 1286 3958 
Q 1038 3666 1038 3163 
Q 1038 2656 1286 2365 
Q 1534 2075 1959 2075 
z
" transform="scale(0.015625)"/>
      <path id="DejaVuSans-2d" d="M 313 2009 
L 1997 2009 
L 1997 1497 
L 313 1497 
L 313 2009 
z
" transform="scale(0.015625)"/>
      <path id="DejaVuSans-36" d="M 2113 2584 
Q 1688 2584 1439 2293 
Q 1191 2003 1191 1497 
Q 1191 994 1439 701 
Q 1688 409 2113 409 
Q 2538 409 2786 701 
Q 3034 994 3034 1497 
Q 3034 2003 2786 2293 
Q 2538 2584 2113 2584 
z
M 3366 4563 
L 3366 3988 
Q 3128 4100 2886 4159 
Q 2644 4219 2406 4219 
Q 1781 4219 1451 3797 
Q 1122 3375 1075 2522 
Q 1259 2794 1537 2939 
Q 1816 3084 2150 3084 
Q 2853 3084 3261 2657 
Q 3669 2231 3669 1497 
Q 3669 778 3244 343 
Q 2819 -91 2113 -91 
Q 1303 -91 875 529 
Q 447 1150 447 2328 
Q 447 3434 972 4092 
Q 1497 4750 2381 4750 
Q 2619 4750 2861 4703 
Q 3103 4656 3366 4563 
z
" transform="scale(0.015625)"/>
      <path id="DejaVuSans-41" d="M 2188 4044 
L 1331 1722 
L 3047 1722 
L 2188 4044 
z
M 1831 4666 
L 2547 4666 
L 4325 0 
L 3669 0 
L 3244 1197 
L 1141 1197 
L 716 0 
L 50 0 
L 1831 4666 
z
" transform="scale(0.015625)"/>
      <path id="DejaVuSans-46" d="M 628 4666 
L 3309 4666 
L 3309 4134 
L 1259 4134 
L 1259 2759 
L 3109 2759 
L 3109 2228 
L 1259 2228 
L 1259 0 
L 628 0 
L 628 4666 
z
" transform="scale(0.015625)"/>
     </defs>
     <use xlink:href="#DejaVuSans-54"/>
     <use xlink:href="#DejaVuSans-61" x="44.583984"/>
     <use xlink:href="#DejaVuSans-47" x="105.863281"/>
     <use xlink:href="#DejaVuSans-72" x="183.353516"/>
     <use xlink:href="#DejaVuSans-66" x="224.466797"/>
     <use xlink:href="#DejaVuSans-39" x="259.671875"/>
     <use xlink:href="#DejaVuSans-2d" x="323.294922"/>
     <use xlink:href="#DejaVuSans-36" x="359.378906"/>
     <use xlink:href="#DejaVuSans-41" x="423.001953"/>
     <use xlink:href="#DejaVuSans-2d" x="489.160156"/>
     <use xlink:href="#DejaVuSans-46" x="525.244141"/>
     <use xlink:href="#DejaVuSans-31" x="582.763672"/>
    </g>
   </g>
   <g id="text_10">
    <!-- TaGrf9-6A-R1 -->
    <g transform="translate(212.46297 52.255725) scale(0.1 -0.1)">
     <defs>
      <path id="DejaVuSans-52" d="M 2841 2188 
Q 3044 2119 3236 1894 
Q 3428 1669 3622 1275 
L 4263 0 
L 3584 0 
L 2988 1197 
Q 2756 1666 2539 1819 
Q 2322 1972 1947 1972 
L 1259 1972 
L 1259 0 
L 628 0 
L 628 4666 
L 2053 4666 
Q 2853 4666 3247 4331 
Q 3641 3997 3641 3322 
Q 3641 2881 3436 2590 
Q 3231 2300 2841 2188 
z
M 1259 4147 
L 1259 2491 
L 2053 2491 
Q 2509 2491 2742 2702 
Q 2975 2913 2975 3322 
Q 2975 3731 2742 3939 
Q 2509 4147 2053 4147 
L 1259 4147 
z
" transform="scale(0.015625)"/>
     </defs>
     <use xlink:href="#DejaVuSans-54"/>
     <use xlink:href="#DejaVuSans-61" x="44.583984"/>
     <use xlink:href="#DejaVuSans-47" x="105.863281"/>
     <use xlink:href="#DejaVuSans-72" x="183.353516"/>
     <use xlink:href="#DejaVuSans-66" x="224.466797"/>
     <use xlink:href="#DejaVuSans-39" x="259.671875"/>
     <use xlink:href="#DejaVuSans-2d" x="323.294922"/>
     <use xlink:href="#DejaVuSans-36" x="359.378906"/>
     <use xlink:href="#DejaVuSans-41" x="423.001953"/>
     <use xlink:href="#DejaVuSans-2d" x="489.160156"/>
     <use xlink:href="#DejaVuSans-52" x="525.244141"/>
     <use xlink:href="#DejaVuSans-31" x="594.726562"/>
    </g>
   </g>
   <g id="text_11">
    <!-- TaGrf9-6A-F2 -->
    <g transform="translate(169.192849 107.695725) scale(0.1 -0.1)">
     <use xlink:href="#DejaVuSans-54"/>
     <use xlink:href="#DejaVuSans-61" x="44.583984"/>
     <use xlink:href="#DejaVuSans-47" x="105.863281"/>
     <use xlink:href="#DejaVuSans-72" x="183.353516"/>
     <use xlink:href="#DejaVuSans-66" x="224.466797"/>
     <use xlink:href="#DejaVuSans-39" x="259.671875"/>
     <use xlink:href="#DejaVuSans-2d" x="323.294922"/>
     <use xlink:href="#DejaVuSans-36" x="359.378906"/>
     <use xlink:href="#DejaVuSans-41" x="423.001953"/>
     <use xlink:href="#DejaVuSans-2d" x="489.160156"/>
     <use xlink:href="#DejaVuSans-46" x="525.244141"/>
     <use xlink:href="#DejaVuSans-32" x="582.763672"/>
    </g>
   </g>
   <g id="text_12">
    <!-- TaGrf9-6A-R2 -->
    <g transform="translate(349.24577 52.255725) scale(0.1 -0.1)">
     <use xlink:href="#DejaVuSans-54"/>
     <use xlink:href="#DejaVuSans-61" x="44.583984"/>
     <use xlink:href="#DejaVuSans-47" x="105.863281"/>
     <use xlink:href="#DejaVuSans-72" x="183.353516"/>
     <use xlink:href="#DejaVuSans-66" x="224.466797"/>
     <use xlink:href="#DejaVuSans-39" x="259.671875"/>
     <use xlink:href="#DejaVuSans-2d" x="323.294922"/>
     <use xlink:href="#DejaVuSans-36" x="359.378906"/>
     <use xlink:href="#DejaVuSans-41" x="423.001953"/>
     <use xlink:href="#DejaVuSans-2d" x="489.160156"/>
     <use xlink:href="#DejaVuSans-52" x="525.244141"/>
     <use xlink:href="#DejaVuSans-32" x="594.726562"/>
    </g>
   </g>
   <g id="text_13">
    <!-- TaGrf9-6A-F3 -->
    <g transform="translate(334.685682 107.695725) scale(0.1 -0.1)">
     <defs>
      <path id="DejaVuSans-33" d="M 2597 2516 
Q 3050 2419 3304 2112 
Q 3559 1806 3559 1356 
Q 3559 666 3084 287 
Q 2609 -91 1734 -91 
Q 1441 -91 1130 -33 
Q 819 25 488 141 
L 488 750 
Q 750 597 1062 519 
Q 1375 441 1716 441 
Q 2309 441 2620 675 
Q 2931 909 2931 1356 
Q 2931 1769 2642 2001 
Q 2353 2234 1838 2234 
L 1294 2234 
L 1294 2753 
L 1863 2753 
Q 2328 2753 2575 2939 
Q 2822 3125 2822 3475 
Q 2822 3834 2567 4026 
Q 2313 4219 1838 4219 
Q 1578 4219 1281 4162 
Q 984 4106 628 3988 
L 628 4550 
Q 988 4650 1302 4700 
Q 1616 4750 1894 4750 
Q 2613 4750 3031 4423 
Q 3450 4097 3450 3541 
Q 3450 3153 3228 2886 
Q 3006 2619 2597 2516 
z
" transform="scale(0.015625)"/>
     </defs>
     <use xlink:href="#DejaVuSans-54"/>
     <use xlink:href="#DejaVuSans-61" x="44.583984"/>
     <use xlink:href="#DejaVuSans-47" x="105.863281"/>
     <use xlink:href="#DejaVuSans-72" x="183.353516"/>
     <use xlink:href="#DejaVuSans-66" x="224.466797"/>
     <use xlink:href="#DejaVuSans-39" x="259.671875"/>
     <use xlink:href="#DejaVuSans-2d" x="323.294922"/>
     <use xlink:href="#DejaVuSans-36" x="359.378906"/>
     <use xlink:href="#DejaVuSans-41" x="423.001953"/>
     <use xlink:href="#DejaVuSans-2d" x="489.160156"/>
     <use xlink:href="#DejaVuSans-46" x="525.244141"/>
     <use xlink:href="#DejaVuSans-33" x="582.763672"/>
    </g>
   </g>
   <g id="text_14">
    <!-- TaGrf9-6A-R3 -->
    <g transform="translate(552.676862 52.255725) scale(0.1 -0.1)">
     <use xlink:href="#DejaVuSans-54"/>
     <use xlink:href="#DejaVuSans-61" x="44.583984"/>
     <use xlink:href="#DejaVuSans-47" x="105.863281"/>
     <use xlink:href="#DejaVuSans-72" x="183.353516"/>
     <use xlink:href="#DejaVuSans-66" x="224.466797"/>
     <use xlink:href="#DejaVuSans-39" x="259.671875"/>
     <use xlink:href="#DejaVuSans-2d" x="323.294922"/>
     <use xlink:href="#DejaVuSans-36" x="359.378906"/>
     <use xlink:href="#DejaVuSans-41" x="423.001953"/>
     <use xlink:href="#DejaVuSans-2d" x="489.160156"/>
     <use xlink:href="#DejaVuSans-52" x="525.244141"/>
     <use xlink:href="#DejaVuSans-33" x="594.726562"/>
    </g>
   </g>
   <g id="text_15">
    <!-- GRF9-12del-F -->
    <g transform="translate(60.094723 98.825325) scale(0.1 -0.1)">
     <use xlink:href="#DejaVuSans-47"/>
     <use xlink:href="#DejaVuSans-52" x="77.490234"/>
     <use xlink:href="#DejaVuSans-46" x="146.972656"/>
     <use xlink:href="#DejaVuSans-39" x="204.492188"/>
     <use xlink:href="#DejaVuSans-2d" x="268.115234"/>
     <use xlink:href="#DejaVuSans-31" x="304.199219"/>
     <use xlink:href="#DejaVuSans-32" x="367.822266"/>
     <use xlink:href="#DejaVuSans-64" x="431.445312"/>
     <use xlink:href="#DejaVuSans-65" x="494.921875"/>
     <use xlink:href="#DejaVuSans-6c" x="556.445312"/>
     <use xlink:href="#DejaVuSans-2d" x="584.228516"/>
     <use xlink:href="#DejaVuSans-46" x="620.3125"/>
    </g>
   </g>
   <g id="text_16">
    <!-- GRF9-12del-R -->
    <g transform="translate(92.085903 68.887725) scale(0.1 -0.1)">
     <use xlink:href="#DejaVuSans-47"/>
     <use xlink:href="#DejaVuSans-52" x="77.490234"/>
     <use xlink:href="#DejaVuSans-46" x="146.972656"/>
     <use xlink:href="#DejaVuSans-39" x="204.492188"/>
     <use xlink:href="#DejaVuSans-2d" x="268.115234"/>
     <use xlink:href="#DejaVuSans-31" x="304.199219"/>
     <use xlink:href="#DejaVuSans-32" x="367.822266"/>
     <use xlink:href="#DejaVuSans-64" x="431.445312"/>
     <use xlink:href="#DejaVuSans-65" x="494.921875"/>
     <use xlink:href="#DejaVuSans-6c" x="556.445312"/>
     <use xlink:href="#DejaVuSans-2d" x="584.228516"/>
     <use xlink:href="#DejaVuSans-52" x="620.3125"/>
    </g>
   </g>
   <g id="text_17">
    <!-- ${TaGrf9-6A}$ (TraesCS6A02G269600) -->
    <g transform="translate(179.34125 16.318125) scale(0.12 -0.12)">
     <defs>
      <path id="DejaVuSans-Oblique-54" d="M 378 4666 
L 4325 4666 
L 4225 4134 
L 2559 4134 
L 1759 0 
L 1125 0 
L 1925 4134 
L 275 4134 
L 378 4666 
z
" transform="scale(0.015625)"/>
      <path id="DejaVuSans-Oblique-61" d="M 3438 1997 
L 3047 0 
L 2472 0 
L 2578 531 
Q 2325 219 2001 64 
Q 1678 -91 1281 -91 
Q 834 -91 548 182 
Q 263 456 263 884 
Q 263 1497 752 1853 
Q 1241 2209 2100 2209 
L 2900 2209 
L 2931 2363 
Q 2938 2388 2941 2417 
Q 2944 2447 2944 2509 
Q 2944 2788 2717 2942 
Q 2491 3097 2081 3097 
Q 1800 3097 1504 3025 
Q 1209 2953 897 2809 
L 997 3341 
Q 1322 3463 1633 3523 
Q 1944 3584 2234 3584 
Q 2853 3584 3176 3315 
Q 3500 3047 3500 2534 
Q 3500 2431 3484 2292 
Q 3469 2153 3438 1997 
z
M 2816 1759 
L 2241 1759 
Q 1534 1759 1195 1570 
Q 856 1381 856 984 
Q 856 709 1029 553 
Q 1203 397 1509 397 
Q 1978 397 2328 733 
Q 2678 1069 2791 1631 
L 2816 1759 
z
" transform="scale(0.015625)"/>
      <path id="DejaVuSans-Oblique-47" d="M 3494 697 
L 3738 1919 
L 2700 1919 
L 2797 2438 
L 4453 2438 
L 4050 384 
Q 3634 156 3143 32 
Q 2653 -91 2156 -91 
Q 1278 -91 783 396 
Q 288 884 288 1753 
Q 288 2475 589 3126 
Q 891 3778 1422 4213 
Q 1756 4484 2153 4617 
Q 2550 4750 3034 4750 
Q 3472 4750 3873 4639 
Q 4275 4528 4641 4306 
L 4513 3634 
Q 4231 3928 3853 4083 
Q 3475 4238 3047 4238 
Q 2550 4238 2172 4048 
Q 1794 3859 1497 3463 
Q 1244 3125 1098 2667 
Q 953 2209 953 1734 
Q 953 1081 1287 751 
Q 1622 422 2284 422 
Q 2616 422 2925 492 
Q 3234 563 3494 697 
z
" transform="scale(0.015625)"/>
      <path id="DejaVuSans-Oblique-72" d="M 2853 2969 
Q 2766 3016 2653 3041 
Q 2541 3066 2413 3066 
Q 1953 3066 1609 2717 
Q 1266 2369 1153 1784 
L 800 0 
L 225 0 
L 909 3500 
L 1484 3500 
L 1375 2956 
Q 1603 3259 1920 3421 
Q 2238 3584 2597 3584 
Q 2691 3584 2781 3573 
Q 2872 3563 2963 3538 
L 2853 2969 
z
" transform="scale(0.015625)"/>
      <path id="DejaVuSans-Oblique-66" d="M 3059 4863 
L 2969 4384 
L 2419 4384 
Q 2106 4384 1964 4261 
Q 1822 4138 1753 3809 
L 1691 3500 
L 2638 3500 
L 2553 3053 
L 1606 3053 
L 1013 0 
L 434 0 
L 1031 3053 
L 481 3053 
L 563 3500 
L 1113 3500 
L 1159 3744 
Q 1278 4363 1576 4613 
Q 1875 4863 2516 4863 
L 3059 4863 
z
" transform="scale(0.015625)"/>
      <path id="DejaVuSans-2212" d="M 678 2272 
L 4684 2272 
L 4684 1741 
L 678 1741 
L 678 2272 
z
" transform="scale(0.015625)"/>
      <path id="DejaVuSans-Oblique-41" d="M 2356 4666 
L 3072 4666 
L 3938 0 
L 3278 0 
L 3084 1197 
L 984 1197 
L 325 0 
L -341 0 
L 2356 4666 
z
M 2584 4044 
L 1275 1722 
L 2988 1722 
L 2584 4044 
z
" transform="scale(0.015625)"/>
      <path id="DejaVuSans-28" d="M 1984 4856 
Q 1566 4138 1362 3434 
Q 1159 2731 1159 2009 
Q 1159 1288 1364 580 
Q 1569 -128 1984 -844 
L 1484 -844 
Q 1016 -109 783 600 
Q 550 1309 550 2009 
Q 550 2706 781 3412 
Q 1013 4119 1484 4856 
L 1984 4856 
z
" transform="scale(0.015625)"/>
      <path id="DejaVuSans-43" d="M 4122 4306 
L 4122 3641 
Q 3803 3938 3442 4084 
Q 3081 4231 2675 4231 
Q 1875 4231 1450 3742 
Q 1025 3253 1025 2328 
Q 1025 1406 1450 917 
Q 1875 428 2675 428 
Q 3081 428 3442 575 
Q 3803 722 4122 1019 
L 4122 359 
Q 3791 134 3420 21 
Q 3050 -91 2638 -91 
Q 1578 -91 968 557 
Q 359 1206 359 2328 
Q 359 3453 968 4101 
Q 1578 4750 2638 4750 
Q 3056 4750 3426 4639 
Q 3797 4528 4122 4306 
z
" transform="scale(0.015625)"/>
      <path id="DejaVuSans-53" d="M 3425 4513 
L 3425 3897 
Q 3066 4069 2747 4153 
Q 2428 4238 2131 4238 
Q 1616 4238 1336 4038 
Q 1056 3838 1056 3469 
Q 1056 3159 1242 3001 
Q 1428 2844 1947 2747 
L 2328 2669 
Q 3034 2534 3370 2195 
Q 3706 1856 3706 1288 
Q 3706 609 3251 259 
Q 2797 -91 1919 -91 
Q 1588 -91 1214 -16 
Q 841 59 441 206 
L 441 856 
Q 825 641 1194 531 
Q 1563 422 1919 422 
Q 2459 422 2753 634 
Q 3047 847 3047 1241 
Q 3047 1584 2836 1778 
Q 2625 1972 2144 2069 
L 1759 2144 
Q 1053 2284 737 2584 
Q 422 2884 422 3419 
Q 422 4038 858 4394 
Q 1294 4750 2059 4750 
Q 2388 4750 2728 4690 
Q 3069 4631 3425 4513 
z
" transform="scale(0.015625)"/>
      <path id="DejaVuSans-29" d="M 513 4856 
L 1013 4856 
Q 1481 4119 1714 3412 
Q 1947 2706 1947 2009 
Q 1947 1309 1714 600 
Q 1481 -109 1013 -844 
L 513 -844 
Q 928 -128 1133 580 
Q 1338 1288 1338 2009 
Q 1338 2731 1133 3434 
Q 928 4138 513 4856 
z
" transform="scale(0.015625)"/>
     </defs>
     <use xlink:href="#DejaVuSans-Oblique-54" transform="translate(0 0.015625)"/>
     <use xlink:href="#DejaVuSans-Oblique-61" transform="translate(61.083984 0.015625)"/>
     <use xlink:href="#DejaVuSans-Oblique-47" transform="translate(122.363281 0.015625)"/>
     <use xlink:href="#DejaVuSans-Oblique-72" transform="translate(199.853516 0.015625)"/>
     <use xlink:href="#DejaVuSans-Oblique-66" transform="translate(240.966797 0.015625)"/>
     <use xlink:href="#DejaVuSans-39" transform="translate(276.171875 0.015625)"/>
     <use xlink:href="#DejaVuSans-2212" transform="translate(359.277344 0.015625)"/>
     <use xlink:href="#DejaVuSans-36" transform="translate(462.548828 0.015625)"/>
     <use xlink:href="#DejaVuSans-Oblique-41" transform="translate(526.171875 0.015625)"/>
     <use xlink:href="#DejaVuSans-20" transform="translate(594.580078 0.015625)"/>
     <use xlink:href="#DejaVuSans-28" transform="translate(626.367188 0.015625)"/>
     <use xlink:href="#DejaVuSans-54" transform="translate(665.380859 0.015625)"/>
     <use xlink:href="#DejaVuSans-72" transform="translate(726.464844 0.015625)"/>
     <use xlink:href="#DejaVuSans-61" transform="translate(767.578125 0.015625)"/>
     <use xlink:href="#DejaVuSans-65" transform="translate(828.857422 0.015625)"/>
     <use xlink:href="#DejaVuSans-73" transform="translate(890.380859 0.015625)"/>
     <use xlink:href="#DejaVuSans-43" transform="translate(942.480469 0.015625)"/>
     <use xlink:href="#DejaVuSans-53" transform="translate(1012.304688 0.015625)"/>
     <use xlink:href="#DejaVuSans-36" transform="translate(1075.78125 0.015625)"/>
     <use xlink:href="#DejaVuSans-41" transform="translate(1139.404297 0.015625)"/>
     <use xlink:href="#DejaVuSans-30" transform="translate(1207.8125 0.015625)"/>
     <use xlink:href="#DejaVuSans-32" transform="translate(1271.435547 0.015625)"/>
     <use xlink:href="#DejaVuSans-47" transform="translate(1335.058594 0.015625)"/>
     <use xlink:href="#DejaVuSans-32" transform="translate(1412.548828 0.015625)"/>
     <use xlink:href="#DejaVuSans-36" transform="translate(1476.171875 0.015625)"/>
     <use xlink:href="#DejaVuSans-39" transform="translate(1539.794922 0.015625)"/>
     <use xlink:href="#DejaVuSans-36" transform="translate(1603.417969 0.015625)"/>
     <use xlink:href="#DejaVuSans-30" transform="translate(1667.041016 0.015625)"/>
     <use xlink:href="#DejaVuSans-30" transform="translate(1730.664062 0.015625)"/>
     <use xlink:href="#DejaVuSans-29" transform="translate(1794.287109 0.015625)"/>
    </g>
   </g>
  </g>
 </g>
 <defs>
  <clipPath id="p3b8e0d6124">
   <rect x="10.38125" y="22.318125" width="558" height="110.88"/>
  </clipPath>
 </defs>
</svg>
